<?xml version="1.0" encoding="UTF-8" standalone="no"?>
<!-- Created with Inkscape (http://www.inkscape.org/) -->

<svg
   xmlns:dc="http://purl.org/dc/elements/1.1/"
   xmlns:cc="http://creativecommons.org/ns#"
   xmlns:rdf="http://www.w3.org/1999/02/22-rdf-syntax-ns#"
   xmlns:svg="http://www.w3.org/2000/svg"
   xmlns="http://www.w3.org/2000/svg"
   xmlns:sodipodi="http://sodipodi.sourceforge.net/DTD/sodipodi-0.dtd"
   xmlns:inkscape="http://www.inkscape.org/namespaces/inkscape"
   width="210mm"
   height="297mm"
   viewBox="0 0 744.09448819 1052.3622047"
   id="svg8469"
   version="1.1"
   inkscape:version="0.91 r13725"
   sodipodi:docname="stayhomeremix.svg">
  <defs
     id="defs8471">
    <clipPath
       id="Clip_1">
      <path
         inkscape:connector-curvature="0"
         id="path6276"
         d="m 216.332,0.154 0,433.151 -215.395,0 0,-433.151 215.395,0 z" />
    </clipPath>
  </defs>
  <sodipodi:namedview
     id="base"
     pagecolor="#ffffff"
     bordercolor="#666666"
     borderopacity="1.0"
     inkscape:pageopacity="0.0"
     inkscape:pageshadow="2"
     inkscape:zoom="0.4665165"
     inkscape:cx="-119.28571"
     inkscape:cy="520"
     inkscape:document-units="px"
     inkscape:current-layer="g6279"
     showgrid="false"
     inkscape:window-width="1916"
     inkscape:window-height="1035"
     inkscape:window-x="4"
     inkscape:window-y="1"
     inkscape:window-maximized="1" />
  <metadata
     id="metadata8474">
    <rdf:RDF>
      <cc:Work
         rdf:about="">
        <dc:format>image/svg+xml</dc:format>
        <dc:type
           rdf:resource="http://purl.org/dc/dcmitype/StillImage" />
        <dc:title></dc:title>
        <dc:description>remix</dc:description>
        <dc:creator>
          <cc:Agent>
            <dc:title>j4p4n</dc:title>
          </cc:Agent>
        </dc:creator>
        <cc:license
           rdf:resource="http://creativecommons.org/publicdomain/zero/1.0/" />
      </cc:Work>
      <cc:License
         rdf:about="http://creativecommons.org/publicdomain/zero/1.0/">
        <cc:permits
           rdf:resource="http://creativecommons.org/ns#Reproduction" />
        <cc:permits
           rdf:resource="http://creativecommons.org/ns#Distribution" />
        <cc:permits
           rdf:resource="http://creativecommons.org/ns#DerivativeWorks" />
      </cc:License>
    </rdf:RDF>
  </metadata>
  <g
     inkscape:label="Layer 1"
     inkscape:groupmode="layer"
     id="layer1">
    <g
       transform="matrix(2.4720323,0,0,2.2269972,120.84592,79.049162)"
       id="Layer_1">
      <g
         id="g6279"
         clip-path="url(#Clip_1)">
        <g
           id="g9313">
          <path
             d="m 105.39628,388.12248 c 0,0 -0.0618,-0.007 -0.17341,-0.0161 l -4.3569,-88.30093 -1.325521,-27.63656 11.712411,0 -3.3767,66.5458 0.13098,0 -2.43745,49.39169 c -0.11089,0.01 -0.17341,0.0161 -0.17341,0.0161 M 174.47988,56.923202 C 165.17665,35.861065 140.98153,17.96925 130.33788,21.544509 113.27203,11.521842 92.638191,13.325276 73.518923,21.61125 54.398911,29.896673 43.93463,39.667666 36.312674,56.923152 29.893441,71.4538 29.190116,91.32916 29.266775,100.84431 c -0.03052,2.92462 0.10494,4.58612 0.111638,4.58551 0.02604,0.60115 0.04615,2.41293 0.04615,2.41293 0,0 0.06177,-5.9e-4 0.185321,-0.0203 -0.159271,7.27874 2.668168,14.71135 2.668168,22.83456 0,26.70324 14.065006,25.95956 17.912824,31.09077 -3.124399,3.81142 -4.854056,8.63012 -4.406756,14.41555 -0.303659,0.003 -0.615503,0.0238 -0.939256,0.0692 -7.885423,1.09971 -9.632198,9.08814 -7.877236,15.03936 1.754963,5.94943 1.917211,11.65911 8.292533,16.74797 5.559614,4.43822 8.633403,2.99141 8.633403,2.99141 0,0 2.843814,-0.48008 5.043844,-3.48819 4.663527,4.59804 10.113734,8.63848 15.60711,12.09924 -1.679048,4.74773 -3.152681,8.95217 -3.701944,12.08432 -0.09154,0.33338 -0.183088,0.66913 -0.274632,1.00489 -0.02902,0.10616 -0.0573,0.2135 -0.08708,0.31966 l -0.194997,0.72161 c -0.03424,0.12644 -0.06847,0.25286 -0.101963,0.37989 -0.06475,0.23975 -0.128013,0.47889 -0.192019,0.71863 -0.02977,0.11153 -0.05954,0.22245 -0.08856,0.33397 -0.08931,0.33516 -0.177134,0.67152 -0.264212,1.00668 -0.02754,0.10497 -0.05433,0.20933 -0.08112,0.31369 -0.06177,0.23975 -0.122802,0.4783 -0.183087,0.71804 -0.03498,0.13598 -0.06921,0.27254 -0.103453,0.40851 -0.05358,0.2153 -0.107173,0.4294 -0.160015,0.6435 -0.0335,0.13656 -0.06773,0.27372 -0.10122,0.4103 -0.06178,0.25644 -0.123546,0.51228 -0.183831,0.76753 -0.03349,0.14194 -0.06699,0.28447 -0.09973,0.42581 -0.06177,0.2642 -0.122803,0.52839 -0.182344,0.79139 -0.03274,0.14492 -0.064,0.28865 -0.09601,0.43357 -0.04167,0.18965 -0.08262,0.37869 -0.123547,0.56715 -0.03275,0.15505 -0.06549,0.30952 -0.0975,0.46338 -0.0387,0.18606 -0.07591,0.36975 -0.113127,0.55403 -0.02978,0.14671 -0.05954,0.29401 -0.08857,0.44013 -0.05806,0.29878 -0.114616,0.59577 -0.167458,0.88978 -0.0268,0.14432 -0.04986,0.28507 -0.07517,0.42761 -0.03052,0.17413 -0.06028,0.34887 -0.08931,0.52183 -0.0253,0.15445 -0.04986,0.30772 -0.07293,0.4604 -0.0253,0.16102 -0.04987,0.32203 -0.07294,0.48126 -0.02233,0.15148 -0.04465,0.30237 -0.06475,0.45206 -0.02382,0.17235 -0.04465,0.34291 -0.06549,0.51288 -0.02828,0.22424 -0.05433,0.4455 -0.07741,0.66496 -0.01861,0.17474 -0.03721,0.34947 -0.05358,0.52063 -0.01339,0.14671 -0.02382,0.28984 -0.03498,0.43416 -0.01117,0.14074 -0.02158,0.2803 -0.03052,0.41866 -0.0097,0.14551 -0.01786,0.28864 -0.02456,0.43117 -0.0067,0.13777 -0.01191,0.27314 -0.01637,0.40853 -0.0038,0.13597 -0.0097,0.27313 -0.01191,0.40612 -0.0029,0.23557 -0.0038,0.46577 7.44e-4,0.69299 0.0022,0.13061 0.0089,0.25704 0.01415,0.38466 0.0045,0.12583 0.0097,0.25167 0.01712,0.37452 0.0082,0.12762 0.01787,0.25227 0.02828,0.37631 0.01042,0.1157 0.02233,0.2296 0.03498,0.34351 0.01339,0.12048 0.0268,0.24094 0.04317,0.35783 0.01637,0.11928 0.03721,0.23319 0.05656,0.34829 0.03052,0.17592 0.06475,0.34708 0.102708,0.51407 0.0268,0.12107 0.05358,0.24213 0.08558,0.35842 0.02754,0.10197 0.0588,0.19978 0.09006,0.29818 0.02977,0.0966 0.06103,0.19263 0.09378,0.28507 0.03498,0.0961 0.07071,0.19024 0.108662,0.28209 0.03795,0.0925 0.07815,0.1795 0.119081,0.26776 0.04019,0.0841 0.07815,0.17057 0.121314,0.25168 0.07889,0.14969 0.162993,0.29282 0.254537,0.42879 -0.04465,0.91365 0.791891,1.52314 2.300505,1.75931 7.43e-4,0.037 7.43e-4,0.0745 0.0015,0.11152 0.006,0.25167 0.01637,0.52183 0.03052,0.80391 l -0.03052,-0.0161 0.04317,0.23496 c 0.822406,14.89623 12.272086,68.60985 14.404387,78.51622 l 9.44092,51.46231 c -2.998614,0.58862 -5.951834,1.68535 -7.865323,3.68499 -1.284591,1.34184 -1.935074,2.40339 -2.225334,3.23831 l -0.0038,6e-4 c -2.229055,3.23951 -0.529913,4.58552 -0.529913,4.58552 l 21.491223,-0.14909 21.49197,0.14909 c 0,0 1.69839,-1.34601 -0.52992,-4.58552 l -0.004,-10e-4 c -0.29101,-0.83433 -0.94074,-1.89588 -2.22534,-3.23772 -1.91424,-1.99964 -4.86671,-3.09637 -7.86533,-3.68499 l 10.45833,-57.00798 c 3.67068,-17.08374 12.65984,-59.92248 13.38624,-72.97055 l 0.0425,-0.23496 -0.0298,0.0155 c 0.0134,-0.28148 0.0246,-0.55164 0.0305,-0.80331 7.5e-4,-0.037 7.5e-4,-0.0745 0.002,-0.11152 1.50712,-0.23617 2.34442,-0.84566 2.30051,-1.75931 0.0908,-0.13597 0.1749,-0.2791 0.25379,-0.42879 0.0432,-0.0811 0.0811,-0.16758 0.12131,-0.25168 0.041,-0.0882 0.0819,-0.17532 0.11983,-0.26776 0.0372,-0.0919 0.073,-0.18607 0.10717,-0.28209 0.0335,-0.0925 0.0647,-0.18846 0.0945,-0.28507 0.0313,-0.0984 0.0625,-0.19621 0.09,-0.29818 0.032,-0.11629 0.058,-0.23735 0.0856,-0.35842 0.0379,-0.16699 0.0721,-0.33815 0.10196,-0.51407 0.0201,-0.1151 0.041,-0.22901 0.0566,-0.34829 0.0179,-0.11689 0.0305,-0.23735 0.0439,-0.35783 0.0127,-0.11391 0.0246,-0.22781 0.035,-0.34351 0.01,-0.12404 0.0201,-0.24869 0.0291,-0.37631 0.007,-0.12285 0.0112,-0.24869 0.0164,-0.37452 0.005,-0.12762 0.0119,-0.25405 0.0141,-0.38466 0.005,-0.22722 0.005,-0.45742 7.4e-4,-0.69299 -0.002,-0.13299 -0.008,-0.27015 -0.0127,-0.40612 -0.005,-0.13539 -0.008,-0.27076 -0.0157,-0.40852 -0.006,-0.14254 -0.0148,-0.28567 -0.0246,-0.43118 -0.009,-0.13836 -0.0194,-0.27792 -0.0305,-0.41866 -0.0105,-0.14432 -0.0223,-0.28745 -0.035,-0.43416 -0.0164,-0.17116 -0.035,-0.34589 -0.0544,-0.52063 -0.0231,-0.21946 -0.0484,-0.44072 -0.0766,-0.66496 -0.0201,-0.16997 -0.0424,-0.34053 -0.0654,-0.51288 -0.0201,-0.14969 -0.0425,-0.30058 -0.0647,-0.45206 -0.0231,-0.15923 -0.0469,-0.32024 -0.073,-0.48126 -0.0238,-0.15268 -0.0477,-0.30595 -0.073,-0.4604 -0.0291,-0.17296 -0.0588,-0.3477 -0.0893,-0.52183 -0.0253,-0.14254 -0.0491,-0.28329 -0.0752,-0.42761 -0.0528,-0.29401 -0.10866,-0.591 -0.16746,-0.88978 -0.0291,-0.14612 -0.0596,-0.29342 -0.0885,-0.44013 -0.0365,-0.18428 -0.0737,-0.36797 -0.11314,-0.55403 -0.032,-0.15386 -0.0647,-0.30833 -0.0975,-0.46338 -0.0409,-0.18846 -0.0819,-0.3775 -0.12353,-0.56715 -0.032,-0.14492 -0.064,-0.28865 -0.096,-0.43357 -0.0596,-0.263 -0.12057,-0.52719 -0.18161,-0.79139 -0.0335,-0.14134 -0.067,-0.28387 -0.10048,-0.42581 -0.061,-0.25525 -0.12206,-0.51109 -0.18457,-0.76753 -0.0335,-0.13658 -0.067,-0.27374 -0.10048,-0.4103 -0.0528,-0.2141 -0.10568,-0.4282 -0.15927,-0.6435 -0.035,-0.13597 -0.0685,-0.27253 -0.10346,-0.40851 -0.061,-0.23974 -0.12205,-0.47829 -0.18383,-0.71804 -0.0268,-0.10436 -0.0528,-0.20872 -0.0811,-0.31369 -0.0871,-0.33516 -0.17564,-0.67152 -0.26421,-1.00667 -0.0291,-0.11153 -0.0588,-0.22245 -0.0885,-0.33398 -0.064,-0.23974 -0.12727,-0.47888 -0.19202,-0.71863 -0.0335,-0.12703 -0.0685,-0.25345 -0.10196,-0.37989 -0.0655,-0.24093 -0.13024,-0.48127 -0.19499,-0.72161 -0.0291,-0.10616 -0.0573,-0.2135 -0.0871,-0.31966 -0.0916,-0.33576 -0.18308,-0.67151 -0.27463,-1.00489 -0.54777,-3.125 -2.01621,-7.31811 -3.69153,-12.05272 5.4971,-3.45896 10.95251,-7.4994 15.62201,-12.09684 2.19703,2.97709 5.01778,3.45419 5.01778,3.45419 0,0 3.07454,1.44681 8.63416,-2.99141 6.37458,-5.08886 6.53756,-10.79854 8.29328,-16.74797 1.75421,-5.95122 0.007,-13.93965 -7.87725,-15.03936 -0.30291,-0.0423 -0.59466,-0.062 -0.87971,-0.0679 0.44953,-5.8051 -1.29352,-10.63752 -4.43801,-14.45491 3.88874,-5.08945 17.8838,-4.41615 17.8838,-31.0526 0,-8.63192 3.19137,-16.48437 2.59746,-24.20205 0.16821,-0.0513 0.25603,-0.0961 0.25603,-0.0961 0,0 1.84501,-29.665421 -6.88812,-49.435817"
             id="path6281"
             inkscape:connector-curvature="0"
             style="fill:#797979" />
          <path
             d="m 105.39628,388.12248 c 0,0 -0.0618,-0.007 -0.17341,-0.0161 l -4.3569,-88.30093 -1.325521,-27.63656 11.712411,0 -3.3767,66.5458 0.13098,0 -2.43745,49.39169 c -0.11089,0.01 -0.17341,0.0161 -0.17341,0.0161 z M 174.47988,56.923202 C 165.17665,35.861065 140.98153,17.96925 130.33788,21.544509 113.27203,11.521842 92.638191,13.325276 73.518923,21.61125 54.398911,29.896673 43.93463,39.667666 36.312674,56.923152 29.893441,71.4538 29.190116,91.32916 29.266775,100.84431 c -0.03052,2.92462 0.10494,4.58612 0.111638,4.58551 0.02604,0.60115 0.04615,2.41293 0.04615,2.41293 0,0 0.06177,-5.9e-4 0.185321,-0.0203 -0.159271,7.27874 2.668168,14.71135 2.668168,22.83456 0,26.70324 14.065006,25.95956 17.912824,31.09077 -3.124399,3.81142 -4.854056,8.63012 -4.406756,14.41555 -0.303659,0.003 -0.615503,0.0238 -0.939256,0.0692 -7.885423,1.09971 -9.632198,9.08814 -7.877236,15.03936 1.754963,5.94943 1.917211,11.65911 8.292533,16.74797 5.559614,4.43822 8.633403,2.99141 8.633403,2.99141 0,0 2.843814,-0.48008 5.043844,-3.48819 4.663527,4.59804 10.113734,8.63848 15.60711,12.09924 -1.679048,4.74773 -3.152681,8.95217 -3.701944,12.08432 -0.09154,0.33338 -0.183088,0.66913 -0.274632,1.00489 -0.02902,0.10616 -0.0573,0.2135 -0.08708,0.31966 l -0.194997,0.72161 c -0.03424,0.12644 -0.06847,0.25286 -0.101963,0.37989 -0.06475,0.23975 -0.128013,0.47889 -0.192019,0.71863 -0.02977,0.11153 -0.05954,0.22245 -0.08856,0.33397 -0.08931,0.33516 -0.177134,0.67152 -0.264212,1.00668 -0.02754,0.10497 -0.05433,0.20933 -0.08112,0.31369 -0.06177,0.23975 -0.122802,0.4783 -0.183087,0.71804 -0.03498,0.13598 -0.06921,0.27254 -0.103453,0.40851 -0.05358,0.2153 -0.107173,0.4294 -0.160015,0.6435 -0.0335,0.13656 -0.06773,0.27372 -0.10122,0.4103 -0.06178,0.25644 -0.123546,0.51228 -0.183831,0.76753 -0.03349,0.14194 -0.06699,0.28447 -0.09973,0.42581 -0.06177,0.2642 -0.122803,0.52839 -0.182344,0.79139 -0.03274,0.14492 -0.064,0.28865 -0.09601,0.43357 -0.04167,0.18965 -0.08262,0.37869 -0.123547,0.56715 -0.03275,0.15505 -0.06549,0.30952 -0.0975,0.46338 -0.0387,0.18606 -0.07591,0.36975 -0.113127,0.55403 -0.02978,0.14671 -0.05954,0.29401 -0.08857,0.44013 -0.05806,0.29878 -0.114616,0.59577 -0.167458,0.88978 -0.0268,0.14432 -0.04986,0.28507 -0.07517,0.42761 -0.03052,0.17413 -0.06028,0.34887 -0.08931,0.52183 -0.0253,0.15445 -0.04986,0.30772 -0.07293,0.4604 -0.0253,0.16102 -0.04987,0.32203 -0.07294,0.48126 -0.02233,0.15148 -0.04465,0.30237 -0.06475,0.45206 -0.02382,0.17235 -0.04465,0.34291 -0.06549,0.51288 -0.02828,0.22424 -0.05433,0.4455 -0.07741,0.66496 -0.01861,0.17474 -0.03721,0.34947 -0.05358,0.52063 -0.01339,0.14671 -0.02382,0.28984 -0.03498,0.43416 -0.01117,0.14074 -0.02158,0.2803 -0.03052,0.41866 -0.0097,0.14551 -0.01786,0.28864 -0.02456,0.43117 -0.0067,0.13777 -0.01191,0.27314 -0.01637,0.40853 -0.0038,0.13597 -0.0097,0.27313 -0.01191,0.40612 -0.0029,0.23557 -0.0038,0.46577 7.44e-4,0.69299 0.0022,0.13061 0.0089,0.25704 0.01415,0.38466 0.0045,0.12583 0.0097,0.25167 0.01712,0.37452 0.0082,0.12762 0.01787,0.25227 0.02828,0.37631 0.01042,0.1157 0.02233,0.2296 0.03498,0.34351 0.01339,0.12048 0.0268,0.24094 0.04317,0.35783 0.01637,0.11928 0.03721,0.23319 0.05656,0.34829 0.03052,0.17592 0.06475,0.34708 0.102708,0.51407 0.0268,0.12107 0.05358,0.24213 0.08558,0.35842 0.02754,0.10197 0.0588,0.19978 0.09006,0.29818 0.02977,0.0966 0.06103,0.19263 0.09378,0.28507 0.03498,0.0961 0.07071,0.19024 0.108662,0.28209 0.03795,0.0925 0.07815,0.1795 0.119081,0.26776 0.04019,0.0841 0.07815,0.17057 0.121314,0.25168 0.07889,0.14969 0.162993,0.29282 0.254537,0.42879 -0.04465,0.91365 0.791891,1.52314 2.300505,1.75931 7.43e-4,0.037 7.43e-4,0.0745 0.0015,0.11152 0.006,0.25167 0.01637,0.52183 0.03052,0.80391 l -0.03052,-0.0161 0.04317,0.23496 c 0.822406,14.89623 12.272086,68.60985 14.404387,78.51622 l 9.44092,51.46231 c -2.998614,0.58862 -5.951834,1.68535 -7.865323,3.68499 -1.284591,1.34184 -1.935074,2.40339 -2.225334,3.23831 l -0.0038,6e-4 c -2.229055,3.23951 -0.529913,4.58552 -0.529913,4.58552 l 21.491223,-0.14909 21.49197,0.14909 c 0,0 1.69839,-1.34601 -0.52992,-4.58552 l -0.004,-10e-4 c -0.29101,-0.83433 -0.94074,-1.89588 -2.22534,-3.23772 -1.91424,-1.99964 -4.86671,-3.09637 -7.86533,-3.68499 l 10.45833,-57.00798 c 3.67068,-17.08374 12.65984,-59.92248 13.38624,-72.97055 l 0.0425,-0.23496 -0.0298,0.0155 c 0.0134,-0.28148 0.0246,-0.55164 0.0305,-0.80331 7.5e-4,-0.037 7.5e-4,-0.0745 0.002,-0.11152 1.50712,-0.23617 2.34442,-0.84566 2.30051,-1.75931 0.0908,-0.13597 0.1749,-0.2791 0.25379,-0.42879 0.0432,-0.0811 0.0811,-0.16758 0.12131,-0.25168 0.041,-0.0882 0.0819,-0.17532 0.11983,-0.26776 0.0372,-0.0919 0.073,-0.18607 0.10717,-0.28209 0.0335,-0.0925 0.0647,-0.18846 0.0945,-0.28507 0.0313,-0.0984 0.0625,-0.19621 0.09,-0.29818 0.032,-0.11629 0.058,-0.23735 0.0856,-0.35842 0.0379,-0.16699 0.0721,-0.33815 0.10196,-0.51407 0.0201,-0.1151 0.041,-0.22901 0.0566,-0.34829 0.0179,-0.11689 0.0305,-0.23735 0.0439,-0.35783 0.0127,-0.11391 0.0246,-0.22781 0.035,-0.34351 0.01,-0.12404 0.0201,-0.24869 0.0291,-0.37631 0.007,-0.12285 0.0112,-0.24869 0.0164,-0.37452 0.005,-0.12762 0.0119,-0.25405 0.0141,-0.38466 0.005,-0.22722 0.005,-0.45742 7.4e-4,-0.69299 -0.002,-0.13299 -0.008,-0.27015 -0.0127,-0.40612 -0.005,-0.13539 -0.008,-0.27076 -0.0157,-0.40852 -0.006,-0.14254 -0.0148,-0.28567 -0.0246,-0.43118 -0.009,-0.13836 -0.0194,-0.27792 -0.0305,-0.41866 -0.0105,-0.14432 -0.0223,-0.28745 -0.035,-0.43416 -0.0164,-0.17116 -0.035,-0.34589 -0.0544,-0.52063 -0.0231,-0.21946 -0.0484,-0.44072 -0.0766,-0.66496 -0.0201,-0.16997 -0.0424,-0.34053 -0.0654,-0.51288 -0.0201,-0.14969 -0.0425,-0.30058 -0.0647,-0.45206 -0.0231,-0.15923 -0.0469,-0.32024 -0.073,-0.48126 -0.0238,-0.15268 -0.0477,-0.30595 -0.073,-0.4604 -0.0291,-0.17296 -0.0588,-0.3477 -0.0893,-0.52183 -0.0253,-0.14254 -0.0491,-0.28329 -0.0752,-0.42761 -0.0528,-0.29401 -0.10866,-0.591 -0.16746,-0.88978 -0.0291,-0.14612 -0.0596,-0.29342 -0.0885,-0.44013 -0.0365,-0.18428 -0.0737,-0.36797 -0.11314,-0.55403 -0.032,-0.15386 -0.0647,-0.30833 -0.0975,-0.46338 -0.0409,-0.18846 -0.0819,-0.3775 -0.12353,-0.56715 -0.032,-0.14492 -0.064,-0.28865 -0.096,-0.43357 -0.0596,-0.263 -0.12057,-0.52719 -0.18161,-0.79139 -0.0335,-0.14134 -0.067,-0.28387 -0.10048,-0.42581 -0.061,-0.25525 -0.12206,-0.51109 -0.18457,-0.76753 -0.0335,-0.13658 -0.067,-0.27374 -0.10048,-0.4103 -0.0528,-0.2141 -0.10568,-0.4282 -0.15927,-0.6435 -0.035,-0.13597 -0.0685,-0.27253 -0.10346,-0.40851 -0.061,-0.23974 -0.12205,-0.47829 -0.18383,-0.71804 -0.0268,-0.10436 -0.0528,-0.20872 -0.0811,-0.31369 -0.0871,-0.33516 -0.17564,-0.67152 -0.26421,-1.00667 -0.0291,-0.11153 -0.0588,-0.22245 -0.0885,-0.33398 -0.064,-0.23974 -0.12727,-0.47888 -0.19202,-0.71863 -0.0335,-0.12703 -0.0685,-0.25345 -0.10196,-0.37989 -0.0655,-0.24093 -0.13024,-0.48127 -0.19499,-0.72161 -0.0291,-0.10616 -0.0573,-0.2135 -0.0871,-0.31966 -0.0916,-0.33576 -0.18308,-0.67151 -0.27463,-1.00489 -0.54777,-3.125 -2.01621,-7.31811 -3.69153,-12.05272 5.4971,-3.45896 10.95251,-7.4994 15.62201,-12.09684 2.19703,2.97709 5.01778,3.45419 5.01778,3.45419 0,0 3.07454,1.44681 8.63416,-2.99141 6.37458,-5.08886 6.53756,-10.79854 8.29328,-16.74797 1.75421,-5.95122 0.007,-13.93965 -7.87725,-15.03936 -0.30291,-0.0423 -0.59466,-0.062 -0.87971,-0.0679 0.44953,-5.8051 -1.29352,-10.63752 -4.43801,-14.45491 3.88874,-5.08945 17.8838,-4.41615 17.8838,-31.0526 0,-8.63192 3.19137,-16.48437 2.59746,-24.20205 0.16821,-0.0513 0.25603,-0.0961 0.25603,-0.0961 0,0 1.84501,-29.665421 -6.88812,-49.435817 z"
             id="path6283"
             inkscape:connector-curvature="0"
             style="fill-opacity:1;stroke:#797979;stroke-width:5.32980537;stroke-linecap:round;stroke-linejoin:round;fill:#425987" />
          <path
             d="m 178.51451,130.65709 c 0,-9.46863 3.85377,-17.99857 2.32507,-26.44143 C 178.25774,94.060603 169.26932,84.390992 162.89177,77.444428 152.08811,64.745842 134.87116,57.683578 105.76841,57.564895 l 0,-0.006 c -0.12578,0 -0.2471,0.002 -0.37213,0.003 -0.12504,-5.9e-4 -0.24635,-0.003 -0.37213,-0.003 l 0,0.006 c -29.102759,0.118683 -46.318957,7.180947 -57.123364,19.879533 -6.377555,6.946564 -15.36597,16.616175 -17.947805,26.771232 -1.528708,8.44286 2.325065,16.9728 2.325065,26.44143 0,30.2141 18.010323,25.28745 18.848359,33.49356 0.838035,8.20789 -6.382765,9.97018 6.606787,14.27719 14.917925,4.94514 5.970445,8.10413 7.541575,12.66281 1.708818,4.95885 21.862606,10.43297 18.744161,13.89134 -2.438192,2.70516 14.717719,6.76288 21.005222,7.0062 l 0,0.0125 c 0.11015,0.002 0.24188,0 0.37213,-0.002 0.13025,0.002 0.26273,0.004 0.37213,0.002 l 0,-0.0125 c 6.28824,-0.24332 23.44415,-4.30104 21.00448,-7.0062 -3.1177,-3.45837 17.03608,-8.93249 18.7449,-13.89134 1.57113,-4.55868 -7.37635,-7.71767 7.54232,-12.66281 12.98881,-4.30701 5.76875,-6.0693 6.60679,-14.27719 0.83728,-8.20611 18.84761,-3.27946 18.84761,-33.49356"
             id="path6285"
             inkscape:connector-curvature="0"
             style="fill:#ae9684" />
          <path
             d="m 178.51451,130.65709 c 0,-9.46863 3.85377,-17.99857 2.32507,-26.44143 C 178.25774,94.060603 169.26932,84.390992 162.89177,77.444428 152.08811,64.745842 134.87116,57.683578 105.76841,57.564895 l 0,-0.006 c -0.12578,0 -0.2471,0.002 -0.37213,0.003 -0.12504,-5.9e-4 -0.24635,-0.003 -0.37213,-0.003 l 0,0.006 c -29.102759,0.118683 -46.318957,7.180947 -57.123364,19.879533 -6.377555,6.946564 -15.36597,16.616175 -17.947805,26.771232 -1.528708,8.44286 2.325065,16.9728 2.325065,26.44143 0,30.2141 18.010323,25.28745 18.848359,33.49356 0.838035,8.20789 -6.382765,9.97018 6.606787,14.27719 14.917925,4.94514 5.970445,8.10413 7.541575,12.66281 1.708818,4.95885 21.862606,10.43297 18.744161,13.89134 -2.438192,2.70516 14.717719,6.76288 21.005222,7.0062 l 0,0.0125 c 0.11015,0.002 0.24188,0 0.37213,-0.002 0.13025,0.002 0.26273,0.004 0.37213,0.002 l 0,-0.0125 c 6.28824,-0.24332 23.44415,-4.30104 21.00448,-7.0062 -3.1177,-3.45837 17.03608,-8.93249 18.7449,-13.89134 1.57113,-4.55868 -7.37635,-7.71767 7.54232,-12.66281 12.98881,-4.30701 5.76875,-6.0693 6.60679,-14.27719 0.83728,-8.20611 18.84761,-3.27946 18.84761,-33.49356 z"
             id="path6287"
             inkscape:connector-curvature="0"
             style="fill-opacity:0;stroke:#797979;stroke-width:2.66490269;stroke-linecap:round;stroke-linejoin:round" />
          <path
             d="m 131.34933,157.38956 c -2.884,-1.25358 -10.52977,-1.72472 -16.77336,-1.89588 l -3.30749,-1.53208 -1.01293,-8.57586 -4.83024,-2.5167 -4.83099,2.5167 -1.012931,8.57586 -3.30749,1.53208 c -6.242103,0.17116 -13.881176,0.64289 -16.764436,1.89588 -0.25528,0.11092 -1.058335,1.48259 -1.058335,1.48259 -0.04763,3.99988 8.284345,18.60746 8.284345,18.60746 l 37.387847,0 c 0,0 8.33198,-14.60758 8.28435,-18.60746 0,0 -0.80306,-1.37167 -1.05834,-1.48259"
             id="path6289"
             inkscape:connector-curvature="0"
             style="fill:#ffefd9" />
          <path
             d="m 131.34933,157.38956 c -2.884,-1.25358 -10.52977,-1.72472 -16.77336,-1.89588 l -3.30749,-1.53208 -1.01293,-8.57586 -4.83024,-2.5167 -4.83099,2.5167 -1.012931,8.57586 -3.30749,1.53208 c -6.242103,0.17116 -13.881176,0.64289 -16.764436,1.89588 -0.25528,0.11092 -1.058335,1.48259 -1.058335,1.48259 -0.04763,3.99988 8.284345,18.60746 8.284345,18.60746 l 37.387847,0 c 0,0 8.33198,-14.60758 8.28435,-18.60746 0,0 -0.80306,-1.37167 -1.05834,-1.48259 z"
             id="path6291"
             inkscape:connector-curvature="0"
             style="fill-opacity:0;stroke:#797979;stroke-width:2.66490269;stroke-linecap:round;stroke-linejoin:round" />
          <path
             d="m 131.55996,157.38956 c -2.8855,-1.25358 -10.53127,-1.72472 -16.77485,-1.89588 l -3.30675,-1.53208 -1.01293,-8.57586 -4.83024,-2.5167 -4.83024,2.5167 -1.013686,8.57586 -3.307491,1.53208 c -6.242096,0.17116 -13.881169,0.64289 -16.764429,1.89588 -0.256025,0.11092 -1.057592,1.48259 -1.057592,1.48259 -0.04763,3.99988 8.283602,18.60746 8.283602,18.60746 l 37.387846,0 c 0,0 8.33124,-14.60758 8.2836,-18.60746 0,0 -0.80156,-1.37167 -1.05684,-1.48259"
             id="path6293"
             inkscape:connector-curvature="0"
             style="fill:#ffefd9" />
          <path
             d="m 131.55996,157.38956 c -2.8855,-1.25358 -10.53127,-1.72472 -16.77485,-1.89588 l -3.30675,-1.53208 -1.01293,-8.57586 -4.83024,-2.5167 -4.83024,2.5167 -1.013686,8.57586 -3.307491,1.53208 c -6.242096,0.17116 -13.881169,0.64289 -16.764429,1.89588 -0.256025,0.11092 -1.057592,1.48259 -1.057592,1.48259 -0.04763,3.99988 8.283602,18.60746 8.283602,18.60746 l 37.387846,0 c 0,0 8.33124,-14.60758 8.2836,-18.60746 0,0 -0.80156,-1.37167 -1.05684,-1.48259 z"
             id="path6295"
             inkscape:connector-curvature="0"
             style="fill-opacity:0;stroke:#797979;stroke-width:2.66490269;stroke-linecap:round;stroke-linejoin:round" />
          <path
             d="m 105.39628,186.80928 c 7.56614,0.006 15.14269,-14.36426 14.91793,-18.78757 0,0 -4.40378,3.50072 -14.91793,3.50072 -10.513408,0 -14.853178,-3.50072 -14.853178,-3.50072 -0.224022,4.41019 7.309366,18.78101 14.853178,18.78757"
             id="path6297"
             inkscape:connector-curvature="0"
             style="fill:#ffffff" />
          <path
             d="m 105.39628,186.80928 c 7.56614,0.006 15.14269,-14.36426 14.91793,-18.78757 0,0 -4.40378,3.50072 -14.91793,3.50072 -10.513408,0 -14.853178,-3.50072 -14.853178,-3.50072 -0.224022,4.41019 7.309366,18.78101 14.853178,18.78757 z"
             id="path6299"
             inkscape:connector-curvature="0"
             style="fill-opacity:0;stroke:#797979;stroke-width:2.66490269;stroke-linecap:round;stroke-linejoin:round" />
          <path
             d="m 86.002378,192.3985 38.853292,0 1.38283,-19.56226 1.92168,-16.80641 -4.36061,0.0143 -18.37054,29.047 -18.369804,-29.047 -4.360613,-0.0143 1.922421,16.80641 z"
             id="path6301"
             inkscape:connector-curvature="0"
             style="fill:#e2f1c9" />
          <path
             d="m 86.002378,192.3985 38.853292,0 1.38283,-19.56226 1.92168,-16.80641 -4.36061,0.0143 -18.37054,29.047 -18.369804,-29.047 -4.360613,-0.0143 1.922421,16.80641 1.381344,19.56226 z"
             id="path6303"
             inkscape:connector-curvature="0"
             style="fill-opacity:0;stroke:#797979;stroke-width:2.66490269;stroke-linecap:round;stroke-linejoin:round" />
          <path
             d="m 84.742348,156.02983 c 0,0 -10.510425,-1.5792 -12.650913,1.35973 -5.302846,7.27754 -5.379504,25.62798 -5.379504,25.62798 l 17.630006,4.90816 4.431318,-13.39874"
             id="path6305"
             inkscape:connector-curvature="0"
             style="fill:#e2f1c9" />
          <path
             d="m 84.742348,156.02983 c 0,0 -10.510425,-1.5792 -12.650913,1.35973 -5.302846,7.27754 -5.379504,25.62798 -5.379504,25.62798 l 17.630006,4.90816 4.431318,-13.39874"
             id="path6307"
             inkscape:connector-curvature="0"
             style="fill-opacity:0;stroke:#797979;stroke-width:2.66490269;stroke-linecap:round;stroke-linejoin:round" />
          <path
             d="m 126.05095,156.02983 c 0,0 10.50969,-1.5792 12.65091,1.35973 5.30285,7.27754 5.37877,25.62798 5.37877,25.62798 l -17.62778,4.90816 -4.43281,-13.39874"
             id="path6309"
             inkscape:connector-curvature="0"
             style="fill:#e2f1c9" />
          <path
             d="m 126.05095,156.02983 c 0,0 10.50969,-1.5792 12.65091,1.35973 5.30285,7.27754 5.37877,25.62798 5.37877,25.62798 l -17.62778,4.90816 -4.43281,-13.39874"
             id="path6311"
             inkscape:connector-curvature="0"
             style="fill-opacity:0;stroke:#797979;stroke-width:2.66490269;stroke-linecap:round;stroke-linejoin:round" />
          <path
             d="m 136.80922,232.79568 -31.41294,-0.44012 -31.412195,0.44012 c 0,0 -3.67515,10.18488 -3.343211,24.79843 0.332684,14.61354 14.789169,81.12058 14.789169,81.12058 l 17.301047,0 -3.190641,-66.5458 11.712411,0 -3.3767,66.5458 17.30029,0 c 0,0 14.64329,-66.50704 14.97523,-81.12058 0.33194,-14.61355 -3.34246,-24.79843 -3.34246,-24.79843"
             id="path6313"
             inkscape:connector-curvature="0"
             style="fill:#797979" />
          <path
             d="m 136.80922,232.79568 -31.41294,-0.44012 -31.412195,0.44012 c 0,0 -3.67515,10.18488 -3.343211,24.79843 0.332684,14.61354 14.789169,81.12058 14.789169,81.12058 l 17.301047,0 -3.190641,-66.5458 11.712411,0 -3.3767,66.5458 17.30029,0 c 0,0 14.64329,-66.50704 14.97523,-81.12058 0.33194,-14.61355 -3.34246,-24.79843 -3.34246,-24.79843 z"
             id="path6315"
             inkscape:connector-curvature="0"
             style="fill-opacity:1;stroke:#797979;stroke-width:2.66490269;stroke-linecap:round;stroke-linejoin:round;fill:#425987" />
          <path
             d="m 139.94999,231.7067 c -1.05239,-5.99773 -5.48519,-15.90947 -8.28658,-26.08838 -4.46406,-16.2172 -7.60112,-32.78208 -7.60112,-32.78208 l -7.91966,0 -10.74635,15.68523 -10.746356,-15.68523 -7.91966,0 c 0,0 -3.137052,16.56488 -7.600373,32.78208 -2.802135,10.17891 -7.23494,20.09065 -8.287323,26.08838 -2.559507,9.34757 -5.293169,19.83302 -2.503687,24.01658 -0.05806,1.18917 1.368693,1.87083 3.844098,1.87083 l 66.427341,0 c 2.47541,0 3.90141,-0.68166 3.8441,-1.87083 2.78874,-4.18356 0.0558,-14.66901 -2.50443,-24.01658"
             id="path6317"
             inkscape:connector-curvature="0"
             style="fill:#e2f1c9" />
          <path
             d="m 86.730264,172.83624 c 0,0 -3.137052,16.56488 -7.600373,32.78208 -2.802135,10.17891 -7.23494,20.09065 -8.287323,26.08838 -3.286648,12.00322 -6.863556,25.88741 1.340411,25.88741 l 10.791754,0 48.935767,0 6.69982,0 c 8.20396,0 4.62632,-13.88419 1.33967,-25.88741 -1.05239,-5.99773 -5.48519,-15.90947 -8.28658,-26.08838 -4.46406,-16.2172 -7.60112,-32.78208 -7.60112,-32.78208"
             id="path6319"
             inkscape:connector-curvature="0"
             style="fill-opacity:0;stroke:#797979;stroke-width:2.66490269;stroke-linecap:round;stroke-linejoin:round" />
          <path
             d="m 92.531018,155.70599 c 0,0 -6.096225,57.49105 12.013832,62.48569"
             id="path6321"
             inkscape:connector-curvature="0"
             style="fill-opacity:0;stroke:#797979;stroke-width:2.66490269;stroke-linecap:round;stroke-linejoin:round" />
          <path
             d="m 99.097616,208.57932 c 0,1.38955 -1.405162,2.5155 -3.13929,2.5155 -1.734861,0 -3.140025,-1.12595 -3.140025,-2.5155 0,-1.39015 1.405164,-2.51611 3.140025,-2.51611 1.734128,0 3.13929,1.12596 3.13929,2.51611"
             id="path6323"
             inkscape:connector-curvature="0"
             style="fill:#ffffff" />
          <path
             d="m 99.097616,208.57932 c 0,1.38955 -1.405162,2.5155 -3.13929,2.5155 -1.734861,0 -3.140025,-1.12595 -3.140025,-2.5155 0,-1.39015 1.405164,-2.51611 3.140025,-2.51611 1.734128,0 3.13929,1.12596 3.13929,2.51611 z"
             id="path6325"
             inkscape:connector-curvature="0"
             style="fill-opacity:0;stroke:#797979;stroke-width:2.66490269;stroke-linecap:round;stroke-linejoin:round" />
          <path
             d="m 95.301146,195.61534 c 0,1.38956 -1.405157,2.51611 -3.139281,2.51611 -1.734867,0 -3.140028,-1.12655 -3.140028,-2.51611 0,-1.38955 1.405161,-2.51551 3.140028,-2.51551 1.734124,0 3.139281,1.12596 3.139281,2.51551"
             id="path6327"
             inkscape:connector-curvature="0"
             style="fill:#ffffff" />
          <path
             d="m 95.301146,195.61534 c 0,1.38956 -1.405157,2.51611 -3.139281,2.51611 -1.734867,0 -3.140028,-1.12655 -3.140028,-2.51611 0,-1.38955 1.405161,-2.51551 3.140028,-2.51551 1.734124,0 3.139281,1.12596 3.139281,2.51551 z"
             id="path6329"
             inkscape:connector-curvature="0"
             style="fill-opacity:0;stroke:#797979;stroke-width:2.66490269;stroke-linecap:round;stroke-linejoin:round" />
          <path
             d="m 94.719137,182.88574 c 0,1.38955 -1.405159,2.5155 -3.139282,2.5155 -1.734123,0 -3.140029,-1.12595 -3.140029,-2.5155 0,-1.39015 1.405906,-2.5161 3.140029,-2.5161 1.734123,0 3.139282,1.12595 3.139282,2.5161"
             id="path6331"
             inkscape:connector-curvature="0"
             style="fill:#ffffff" />
          <path
             d="m 94.719137,182.88574 c 0,1.38955 -1.405159,2.5155 -3.139282,2.5155 -1.734123,0 -3.140029,-1.12595 -3.140029,-2.5155 0,-1.39015 1.405906,-2.5161 3.140029,-2.5161 1.734123,0 3.139282,1.12595 3.139282,2.5161 z"
             id="path6333"
             inkscape:connector-curvature="0"
             style="fill-opacity:0;stroke:#797979;stroke-width:2.66490269;stroke-linecap:round;stroke-linejoin:round" />
          <path
             d="m 118.26228,155.70599 c 0,0 6.09622,57.49105 -12.01456,62.48569"
             id="path6335"
             inkscape:connector-curvature="0"
             style="fill-opacity:0;stroke:#797979;stroke-width:2.66490269;stroke-linecap:round;stroke-linejoin:round" />
          <path
             d="m 111.25881,208.57932 c 0,1.38955 1.40516,2.5155 3.13928,2.5155 1.73413,0 3.14003,-1.12595 3.14003,-2.5155 0,-1.39015 -1.4059,-2.51611 -3.14003,-2.51611 -1.73412,0 -3.13928,1.12596 -3.13928,2.51611"
             id="path6337"
             inkscape:connector-curvature="0"
             style="fill:#ffffff" />
          <path
             d="m 111.25881,208.57932 c 0,1.38955 1.40516,2.5155 3.13928,2.5155 1.73413,0 3.14003,-1.12595 3.14003,-2.5155 0,-1.39015 -1.4059,-2.51611 -3.14003,-2.51611 -1.73412,0 -3.13928,1.12596 -3.13928,2.51611 z"
             id="path6339"
             inkscape:connector-curvature="0"
             style="fill-opacity:0;stroke:#797979;stroke-width:2.66490269;stroke-linecap:round;stroke-linejoin:round" />
          <path
             d="m 115.05527,195.61534 c 0,1.38956 1.4059,2.51611 3.14003,2.51611 1.73412,0 3.14003,-1.12655 3.14003,-2.51611 0,-1.38955 -1.40591,-2.51551 -3.14003,-2.51551 -1.73413,0 -3.14003,1.12596 -3.14003,2.51551"
             id="path6341"
             inkscape:connector-curvature="0"
             style="fill:#ffffff" />
          <path
             d="m 115.05527,195.61534 c 0,1.38956 1.4059,2.51611 3.14003,2.51611 1.73412,0 3.14003,-1.12655 3.14003,-2.51611 0,-1.38955 -1.40591,-2.51551 -3.14003,-2.51551 -1.73413,0 -3.14003,1.12596 -3.14003,2.51551 z"
             id="path6343"
             inkscape:connector-curvature="0"
             style="fill-opacity:0;stroke:#797979;stroke-width:2.66490269;stroke-linecap:round;stroke-linejoin:round" />
          <path
             d="m 115.63654,182.88574 c 0,1.38955 1.4059,2.5155 3.14003,2.5155 1.73412,0 3.14002,-1.12595 3.14002,-2.5155 0,-1.39015 -1.4059,-2.5161 -3.14002,-2.5161 -1.73413,0 -3.14003,1.12595 -3.14003,2.5161"
             id="path6345"
             inkscape:connector-curvature="0"
             style="fill:#ffffff" />
          <path
             d="m 115.63654,182.88574 c 0,1.38955 1.4059,2.5155 3.14003,2.5155 1.73412,0 3.14002,-1.12595 3.14002,-2.5155 0,-1.39015 -1.4059,-2.5161 -3.14002,-2.5161 -1.73413,0 -3.14003,1.12595 -3.14003,2.5161 z"
             id="path6347"
             inkscape:connector-curvature="0"
             style="fill-opacity:0;stroke:#797979;stroke-width:2.66490269;stroke-linecap:round;stroke-linejoin:round" />
          <path
             d="m 108.31749,217.85353 c 0,1.38955 -1.40515,2.5161 -3.13928,2.5161 -1.73412,0 -3.14002,-1.12655 -3.14002,-2.5161 0,-1.38955 1.4059,-2.51551 3.14002,-2.51551 1.73413,0 3.13928,1.12596 3.13928,2.51551"
             id="path6349"
             inkscape:connector-curvature="0"
             style="fill:#ffffff" />
          <path
             d="m 108.31749,217.85353 c 0,1.38955 -1.40515,2.5161 -3.13928,2.5161 -1.73412,0 -3.14002,-1.12655 -3.14002,-2.5161 0,-1.38955 1.4059,-2.51551 3.14002,-2.51551 1.73413,0 3.13928,1.12596 3.13928,2.51551 z"
             id="path6351"
             inkscape:connector-curvature="0"
             style="fill-opacity:0;stroke:#797979;stroke-width:2.66490269;stroke-linecap:round;stroke-linejoin:round" />
          <path
             d="m 52.503283,92.238677 c 0,0 -20.944935,-3.463141 -20.944935,11.710403 0,8.92593 7.210381,12.97888 22.03453,13.14885"
             id="path6353"
             inkscape:connector-curvature="0"
             style="fill:#ffefd9" />
          <path
             d="m 52.503283,92.238677 c 0,0 -20.944935,-3.463141 -20.944935,11.710403 0,8.92593 7.210381,12.97888 22.03453,13.14885"
             id="path6355"
             inkscape:connector-curvature="0"
             style="fill-opacity:0;stroke:#797979;stroke-width:2.66490269;stroke-linecap:round;stroke-linejoin:round" />
          <path
             d="m 39.539781,104.77029 c 0,0 2.745572,-1.01563 5.362386,-1.0025"
             id="path6357"
             inkscape:connector-curvature="0"
             style="fill:#ffefd9" />
          <path
             d="m 39.539781,104.77029 c 0,0 2.745572,-1.01563 5.362386,-1.0025"
             id="path6359"
             inkscape:connector-curvature="0"
             style="fill-opacity:0;stroke:#797979;stroke-width:2.66490269;stroke-linecap:round;stroke-linejoin:round" />
          <path
             d="m 158.35179,92.238677 c 0,0 20.94493,-3.463141 20.94493,11.710403 0,8.92593 -7.21112,12.97888 -22.03527,13.14885"
             id="path6361"
             inkscape:connector-curvature="0"
             style="fill:#ffefd9" />
          <path
             d="m 158.35179,92.238677 c 0,0 20.94493,-3.463141 20.94493,11.710403 0,8.92593 -7.21112,12.97888 -22.03527,13.14885"
             id="path6363"
             inkscape:connector-curvature="0"
             style="fill-opacity:0;stroke:#797979;stroke-width:2.66490269;stroke-linecap:round;stroke-linejoin:round" />
          <path
             d="m 171.31529,104.77029 c 0,0 -2.74631,-1.01563 -5.36238,-1.0025"
             id="path6365"
             inkscape:connector-curvature="0"
             style="fill:#ffefd9" />
          <path
             d="m 171.31529,104.77029 c 0,0 -2.74631,-1.01563 -5.36238,-1.0025"
             id="path6367"
             inkscape:connector-curvature="0"
             style="fill-opacity:0;stroke:#797979;stroke-width:2.66490269;stroke-linecap:round;stroke-linejoin:round" />
          <path
             d="m 105.42679,151.26122 c -89.876707,0 -81.180786,-117.453472 0,-117.453472 81.18228,0 89.87671,117.453472 0,117.453472"
             id="path6369"
             inkscape:connector-curvature="0"
             style="fill:#ffefd9" />
          <path
             d="m 105.42679,151.26122 c -89.876707,0 -81.180786,-117.453472 0,-117.453472 81.18228,0 89.87671,117.453472 0,117.453472 z"
             id="path6371"
             inkscape:connector-curvature="0"
             style="fill-opacity:0;stroke:#797979;stroke-width:2.66490269;stroke-linecap:round;stroke-linejoin:round" />
          <path
             d="M 174.47988,56.923202 C 165.17665,35.861065 140.98153,17.96925 130.33788,21.544509 113.27203,11.521842 92.638191,13.325276 73.518923,21.61125 54.398911,29.896673 43.93463,39.667666 36.312674,56.923152 29.893441,71.4538 29.190116,91.32916 29.266775,100.84431 c -0.03052,2.92462 0.10494,4.58612 0.111638,4.58551 0.02604,0.60115 0.04615,2.41293 0.04615,2.41293 0,0 8.980229,-0.0161 34.38774,-34.988062 26.010363,-35.800932 62.306377,-33.714215 62.306377,-33.714215 0,0 25.07483,8.194178 35.56963,40.05904 10.49628,31.865457 19.6797,27.159457 19.6797,27.159457 0,0 1.84501,-29.665422 -6.88812,-49.435818"
             id="path6373"
             inkscape:connector-curvature="0"
             style="fill:#ae9684" />
          <path
             d="M 174.47988,56.923202 C 165.17665,35.861065 140.98153,17.96925 130.33788,21.544509 113.27203,11.521842 92.638191,13.325276 73.518923,21.61125 54.398911,29.896673 43.93463,39.667666 36.312674,56.923152 29.893441,71.4538 29.190116,91.32916 29.266775,100.84431 c -0.03052,2.92462 0.10494,4.58612 0.111638,4.58551 0.02604,0.60115 0.04615,2.41293 0.04615,2.41293 0,0 8.980229,-0.0161 34.38774,-34.988062 26.010363,-35.800932 62.306377,-33.714215 62.306377,-33.714215 0,0 25.07483,8.194178 35.56963,40.05904 10.49628,31.865457 19.6797,27.159457 19.6797,27.159457 0,0 1.84501,-29.665422 -6.88812,-49.435818 z"
             id="path6375"
             inkscape:connector-curvature="0"
             style="fill-opacity:0;stroke:#797979;stroke-width:2.66490269;stroke-linecap:round;stroke-linejoin:round" />
          <path
             d="m 102.51079,114.33195 c 0,0 -0.9921,3.57824 2.91675,3.37965"
             id="path6377"
             inkscape:connector-curvature="0"
             style="fill-opacity:0;stroke:#797979;stroke-width:2.66490269;stroke-linecap:round;stroke-linejoin:round" />
          <path
             d="m 125.73241,69.744053 c 0,0 2.29828,-2.981876 7.66661,-2.981876 3.85973,0 7.81472,3.876434 7.81472,3.876434"
             id="path6379"
             inkscape:connector-curvature="0"
             style="fill-opacity:0;stroke:#797979;stroke-width:2.66490269;stroke-linecap:round;stroke-linejoin:round" />
          <path
             d="m 136.62166,94.501923 c 0,4.548545 -1.88818,8.235927 -4.21845,8.235927 -2.33029,0 -4.21847,-3.687382 -4.21847,-8.235927 0,-4.548545 1.88818,-8.235333 4.21847,-8.235333 2.33027,0 4.21845,3.686788 4.21845,8.235333"
             id="path6381"
             inkscape:connector-curvature="0"
             style="fill:#797979" />
          <path
             d="m 85.12192,69.744053 c 0,0 -2.297527,-2.981876 -7.665867,-2.981876 -3.859727,0 -7.814719,3.876434 -7.814719,3.876434"
             id="path6383"
             inkscape:connector-curvature="0"
             style="fill-opacity:0;stroke:#797979;stroke-width:2.66490269;stroke-linecap:round;stroke-linejoin:round" />
          <path
             d="m 74.233412,94.501923 c 0,4.548545 1.888929,8.235927 4.219204,8.235927 2.328786,0 4.21846,-3.687382 4.21846,-8.235927 0,-4.548545 -1.889674,-8.235333 -4.21846,-8.235333 -2.330275,0 -4.219204,3.686788 -4.219204,8.235333"
             id="path6385"
             inkscape:connector-curvature="0"
             style="fill:#797979" />
          <path
             d="m 117.60139,127.28699 c 0,0 -5.75537,4.57418 -12.20511,4.57418 -0.16001,0 -0.31184,0.0161 -0.46144,0.034 -0.15034,-0.0179 -0.30143,-0.034 -0.46218,-0.034 -6.449755,0 -12.204366,-4.57418 -12.204366,-4.57418"
             id="path6387"
             inkscape:connector-curvature="0"
             style="fill-opacity:0;stroke:#797979;stroke-width:2.66490269;stroke-linecap:round;stroke-linejoin:round" />
          <path
             d="m 105.42679,176.55642 c -6.728095,-28.45837 -65.264064,-23.13752 -59.303294,9.07145 5.773961,31.18917 59.303294,48.73329 59.303294,48.73329 0,0 53.52934,-17.54412 59.30181,-48.73329 5.96301,-32.20897 -52.57445,-37.52982 -59.30181,-9.07145"
             id="path6389"
             inkscape:connector-curvature="0"
             style="fill:#f590a6" />
          <path
             d="m 105.42679,176.55642 c -6.728095,-28.45837 -65.264064,-23.13752 -59.303294,9.07145 5.773961,31.18917 59.303294,48.73329 59.303294,48.73329 0,0 53.52934,-17.54412 59.30181,-48.73329 5.96301,-32.20897 -52.57445,-37.52982 -59.30181,-9.07145 z"
             id="path6391"
             inkscape:connector-curvature="0"
             style="fill-opacity:0;stroke:#797979;stroke-width:2.66490269;stroke-linecap:round;stroke-linejoin:round" />
          <path
             d="m 105.42679,169.77922 c -6.728095,-28.45956 -65.264064,-23.13811 -59.303294,9.07086 5.773961,31.18917 59.303294,48.73329 59.303294,48.73329 0,0 53.52934,-17.54412 59.30181,-48.73329 5.96301,-32.20897 -52.57445,-37.53042 -59.30181,-9.07086"
             id="path6393"
             inkscape:connector-curvature="0"
             style="fill:#f590a6" />
          <path
             d="m 105.42679,169.77922 c -6.728095,-28.45956 -65.264064,-23.13811 -59.303294,9.07086 5.773961,31.18917 59.303294,48.73329 59.303294,48.73329 0,0 53.52934,-17.54412 59.30181,-48.73329 5.96301,-32.20897 -52.57445,-37.53042 -59.30181,-9.07086 z"
             id="path6395"
             inkscape:connector-curvature="0"
             style="fill-opacity:0;stroke:#797979;stroke-width:2.66490269;stroke-linecap:round;stroke-linejoin:round" />
          <path
             d="m 45.260155,208.01992 c -6.375322,-5.08886 -6.53757,-10.79854 -8.292533,-16.74797 -1.754962,-5.95122 -0.0082,-13.93965 7.877237,-15.03936 5.453185,-0.76097 7.980688,4.60102 8.803095,9.13108 0.825383,4.53185 1.812271,7.41353 1.812271,7.41353 0,0 6.713215,9.4406 4.018997,13.93785 -2.240963,3.73927 -5.585663,4.29628 -5.585663,4.29628 0,0 -3.07379,1.44681 -8.633404,-2.99141"
             id="path6397"
             inkscape:connector-curvature="0"
             style="fill:#ffefd9" />
          <path
             d="m 45.260155,208.01992 c -6.375322,-5.08886 -6.53757,-10.79854 -8.292533,-16.74797 -1.754962,-5.95122 -0.0082,-13.93965 7.877237,-15.03936 5.453185,-0.76097 7.980688,4.60102 8.803095,9.13108 0.825383,4.53185 1.812271,7.41353 1.812271,7.41353 0,0 6.713215,9.4406 4.018997,13.93785 -2.240963,3.73927 -5.585663,4.29628 -5.585663,4.29628 0,0 -3.07379,1.44681 -8.633404,-2.99141 z"
             id="path6399"
             inkscape:connector-curvature="0"
             style="fill-opacity:0;stroke:#797979;stroke-width:2.66490269;stroke-linecap:round;stroke-linejoin:round" />
          <path
             d="m 51.148733,179.03614 c 0,0 -2.491036,1.59948 -3.455595,4.638 -0.963071,3.03853 -0.520981,6.75394 -0.520981,6.75394"
             id="path6401"
             inkscape:connector-curvature="0"
             style="fill:#ffefd9" />
          <path
             d="m 51.148733,179.03614 c 0,0 -2.491036,1.59948 -3.455595,4.638 -0.963071,3.03853 -0.520981,6.75394 -0.520981,6.75394"
             id="path6403"
             inkscape:connector-curvature="0"
             style="fill-opacity:0;stroke:#797979;stroke-width:2.66490269;stroke-linecap:round;stroke-linejoin:round" />
          <path
             d="m 46.19941,176.17176 c 0,0 -3.880566,1.89826 -4.627802,5.91901 -0.640063,3.43393 -0.825383,4.49069 -0.825383,4.49069"
             id="path6405"
             inkscape:connector-curvature="0"
             style="fill:#ffefd9" />
          <path
             d="m 46.19941,176.17176 c 0,0 -3.880566,1.89826 -4.627802,5.91901 -0.640063,3.43393 -0.825383,4.49069 -0.825383,4.49069"
             id="path6407"
             inkscape:connector-curvature="0"
             style="fill-opacity:0;stroke:#797979;stroke-width:2.66490269;stroke-linecap:round;stroke-linejoin:round" />
          <path
             d="m 165.5324,208.01992 c 6.37458,-5.08886 6.53757,-10.79854 8.29328,-16.74797 1.75422,-5.95122 0.007,-13.93965 -7.87724,-15.03936 -5.45393,-0.76097 -7.98218,4.60102 -8.80459,9.13108 -0.82463,4.53185 -1.81227,7.41353 -1.81227,7.41353 0,0 -6.7132,9.4406 -4.01825,13.93785 2.24171,3.73927 5.58492,4.29628 5.58492,4.29628 0,0 3.07454,1.44681 8.63415,-2.99141"
             id="path6409"
             inkscape:connector-curvature="0"
             style="fill:#ffefd9" />
          <path
             d="m 165.5324,208.01992 c 6.37458,-5.08886 6.53757,-10.79854 8.29328,-16.74797 1.75422,-5.95122 0.007,-13.93965 -7.87724,-15.03936 -5.45393,-0.76097 -7.98218,4.60102 -8.80459,9.13108 -0.82463,4.53185 -1.81227,7.41353 -1.81227,7.41353 0,0 -6.7132,9.4406 -4.01825,13.93785 2.24171,3.73927 5.58492,4.29628 5.58492,4.29628 0,0 3.07454,1.44681 8.63415,-2.99141 z"
             id="path6411"
             inkscape:connector-curvature="0"
             style="fill-opacity:0;stroke:#797979;stroke-width:2.66490269;stroke-linecap:round;stroke-linejoin:round" />
          <path
             d="m 159.64382,179.03614 c 0,0 2.49178,1.59948 3.4556,4.638 0.96233,3.03853 0.52172,6.75394 0.52172,6.75394"
             id="path6413"
             inkscape:connector-curvature="0"
             style="fill:#ffefd9" />
          <path
             d="m 159.64382,179.03614 c 0,0 2.49178,1.59948 3.4556,4.638 0.96233,3.03853 0.52172,6.75394 0.52172,6.75394"
             id="path6415"
             inkscape:connector-curvature="0"
             style="fill-opacity:0;stroke:#797979;stroke-width:2.66490269;stroke-linecap:round;stroke-linejoin:round" />
          <path
             d="m 164.59389,176.17176 c 0,0 3.87983,1.89826 4.62631,5.91901 0.64007,3.43393 0.82614,4.49069 0.82614,4.49069"
             id="path6417"
             inkscape:connector-curvature="0"
             style="fill:#ffefd9" />
          <path
             d="m 164.59389,176.17176 c 0,0 3.87983,1.89826 4.62631,5.91901 0.64007,3.43393 0.82614,4.49069 0.82614,4.49069"
             id="path6419"
             inkscape:connector-curvature="0"
             style="fill-opacity:0;stroke:#797979;stroke-width:2.66490269;stroke-linecap:round;stroke-linejoin:round" />
          <path
             inkscape:connector-curvature="0"
             id="path9286"
             d="m 84.859705,330.49879 9.237638,38.78707 6.827817,0.44582 0.40164,-34.32878 -7.631094,-45.02866 z"
             style="fill:#425987;fill-rule:evenodd;stroke:none;stroke-width:0.42619964px;stroke-linecap:butt;stroke-linejoin:miter;stroke-opacity:1;fill-opacity:1" />
          <path
             style="fill:#425987;fill-opacity:1;fill-rule:evenodd;stroke:none;stroke-width:0.42619964px;stroke-linecap:butt;stroke-linejoin:miter;stroke-opacity:1"
             d="m 126.22826,327.82382 -9.23764,38.78707 -6.82781,0.44582 -0.40164,-34.32878 7.63109,-45.02866 z"
             id="path9288"
             inkscape:connector-curvature="0" />
          <g
             id="text9290"
             style="font-style:normal;font-weight:normal;font-size:22.05851746px;line-height:93.00000072%;font-family:sans-serif;letter-spacing:0px;word-spacing:0px;fill:#797979;fill-opacity:1;stroke:#797979;stroke-width:1px;stroke-linecap:butt;stroke-linejoin:miter;stroke-opacity:1"
             transform="scale(0.91067061,1.0980919)">
            <path
               id="path9297"
               style="font-style:normal;font-variant:normal;font-weight:600;font-stretch:normal;line-height:93.00000072%;font-family:RiseStarHand;-inkscape-font-specification:'RiseStarHand Semi-Bold';text-align:center;text-anchor:middle;fill:#797979;fill-opacity:1;stroke:#797979;stroke-width:1.29390752px;stroke-opacity:1"
               d="m 101.17447,163.54732 c 0.11029,0.35294 0.5294,0.57353 0.9044,0.46323 0.37499,-0.11029 0.59558,-0.55146 0.48528,-0.9044 l -0.1544,-0.46322 c -0.1103,-0.33088 -0.28677,-0.77205 -0.57353,-1.32352 -0.33087,-0.63969 -0.77204,-1.14704 -1.32351,-1.52203 -0.55146,-0.35294 -1.279391,-0.59558 -2.18379,-0.74999 -0.970575,-0.15441 -1.742623,-0.1103 -2.316145,0.17647 -0.529404,0.28676 -0.970575,0.66175 -1.345569,1.14704 -0.352937,0.48529 -0.617639,1.01469 -0.772048,1.58821 -0.198527,0.6397 -0.176469,1.32351 0.06618,2.00733 0.198527,0.66175 0.507346,1.19116 0.882341,1.58821 0.419112,0.44117 1.014692,0.77205 1.808798,0.97057 0.661756,0.19853 1.235277,0.35294 1.742623,0.46323 0.441171,0.1103 0.882341,0.26471 1.323511,0.46323 0.397054,0.17647 0.772044,0.48529 1.102924,0.9044 0.39706,0.46323 0.66176,0.83823 0.81617,1.12499 0.15441,0.24264 0.24264,0.5294 0.2647,0.86028 0.0221,0.24264 0,0.44117 -0.0662,0.55146 -0.0662,0.15441 -0.35293,0.375 -0.81616,0.66176 -0.46323,0.33087 -0.97058,0.5294 -1.477922,0.59558 -0.529404,0.0662 -1.080867,0.0662 -1.654389,-0.0221 -1.080867,-0.17647 -1.852915,-0.68382 -2.404378,-1.58822 -0.286761,-0.41911 -0.419112,-0.74999 -0.419112,-0.99263 l -0.02206,-0.55146 c 0,-0.92646 -1.499979,-0.9044 -1.455862,0.0441 l 0.02206,0.55146 c 0.02206,0.50734 0.220585,1.08087 0.639697,1.72056 0.794106,1.25734 1.897032,2.00733 3.397012,2.24997 0.727931,0.11029 1.433803,0.13235 2.117617,0.0221 0.727927,-0.11029 1.411747,-0.37499 2.051447,-0.79411 0.66175,-0.44117 1.10292,-0.83822 1.30145,-1.1691 0.22058,-0.37499 0.28676,-0.86028 0.22058,-1.4338 -0.0441,-0.50735 -0.17647,-0.97058 -0.41911,-1.38969 -0.19853,-0.37499 -0.50734,-0.83822 -0.97057,-1.38968 -0.48529,-0.59558 -1.0147,-1.0147 -1.61028,-1.2794 -0.5294,-0.24264 -1.058804,-0.44117 -1.610267,-0.57352 -0.463229,-0.11029 -1.03675,-0.24264 -1.698506,-0.41911 -0.529404,-0.15441 -0.904399,-0.33088 -1.124984,-0.57352 -0.220585,-0.24265 -0.397054,-0.57353 -0.551463,-1.03675 -0.15441,-0.41912 -0.176468,-0.81617 -0.06618,-1.16911 0.110293,-0.41911 0.308819,-0.77204 0.551463,-1.10292 0.242644,-0.30882 0.507346,-0.55146 0.838224,-0.72793 0.286761,-0.13235 0.749989,-0.15441 1.411745,-0.0441 0.705872,0.11029 1.235277,0.28676 1.610272,0.52941 0.352932,0.24264 0.639692,0.55146 0.838222,0.97057 0.24265,0.48529 0.41911,0.86028 0.48529,1.10293 l 0.15441,0.46322 z" />
            <path
               id="path9299"
               style="font-style:normal;font-variant:normal;font-weight:600;font-stretch:normal;line-height:93.00000072%;font-family:RiseStarHand;-inkscape-font-specification:'RiseStarHand Semi-Bold';text-align:center;text-anchor:middle;fill:#797979;fill-opacity:1;stroke:#797979;stroke-width:1.29390752px;stroke-opacity:1"
               d="m 106.13695,163.37086 c -0.375,0.0882 -0.6397,0.50734 -0.55147,0.88234 0.0882,0.37499 0.48529,0.63969 0.86029,0.55146 l 1.38968,-0.30882 0.0662,2.66908 c 0.0441,0.99263 0.13235,1.94115 0.24264,2.80143 0.11029,0.9044 0.24264,1.56616 0.375,2.00733 0.17646,0.5294 0.46322,0.97057 0.86028,1.32351 0.46323,0.41911 0.94851,0.61764 1.49998,0.59558 0.48528,-0.0221 0.99263,-0.19853 1.54409,-0.57352 0.52941,-0.35294 0.99264,-0.83823 1.36763,-1.47792 l 0.46323,-0.79411 c 0.19853,-0.33088 0.11029,-0.79411 -0.24264,-0.99263 -0.35294,-0.19853 -0.79411,-0.0882 -0.99264,0.24264 l -0.48528,0.79411 c -0.26471,0.44117 -0.57353,0.77205 -0.9044,1.01469 -0.33088,0.19853 -0.59558,0.30882 -0.79411,0.33088 -0.15441,0 -0.33088,-0.0662 -0.48529,-0.22059 -0.19852,-0.17647 -0.35293,-0.39705 -0.44117,-0.68381 -0.11029,-0.375 -0.22058,-0.94852 -0.33088,-1.76468 -0.11029,-0.81617 -0.17646,-1.69851 -0.22058,-2.64703 l -0.0662,-2.93378 1.25734,-0.24264 c 0.79411,-0.15441 1.32351,-0.24265 1.58821,-0.30882 l 0.39706,-0.0662 c 0.37499,-0.0882 0.66175,-0.48528 0.57352,-0.86028 -0.0882,-0.37499 -0.48529,-0.66175 -0.86028,-0.57352 l -0.39706,0.0882 -1.56615,0.28676 -1.01469,0.19853 0,-0.72793 c -0.0221,-0.33088 -0.0221,-0.5294 0,-0.59558 l 0.022,-0.15441 c 0.13235,-0.9044 -1.38968,-1.12498 -1.45586,-0.15441 l -0.0221,0.15441 c -0.0221,0.13235 -0.0221,0.39705 0,0.79411 l 0,0.99263 -0.22058,0.0441 -1.45586,0.30882 z" />
            <path
               id="path9301"
               style="font-style:normal;font-variant:normal;font-weight:600;font-stretch:normal;line-height:93.00000072%;font-family:RiseStarHand;-inkscape-font-specification:'RiseStarHand Semi-Bold';text-align:center;text-anchor:middle;fill:#797979;fill-opacity:1;stroke:#797979;stroke-width:1.29390752px;stroke-opacity:1"
               d="m 122.2407,163.78997 c -0.1103,0.39705 -0.17647,0.7941 -0.22059,1.21322 -0.0221,0.24264 -0.0441,0.46323 -0.0441,0.70587 l -0.19852,0.99263 c -0.0882,0.48529 -0.15441,0.94852 -0.19853,1.36763 l -0.13235,1.27939 c -0.0441,0.41912 -0.11029,0.83823 -0.17647,1.23528 -0.11029,0.77205 -0.24264,1.23528 -0.57352,1.87498 -0.11029,0.24264 -0.22058,0.39705 -0.28676,0.48528 l -0.28676,-0.0882 c -0.19853,-0.0882 -0.375,-0.19853 -0.52941,-0.30882 -0.15441,-0.13235 -0.30881,-0.2647 -0.41911,-0.39705 -0.11029,-0.13235 -0.22058,-0.28676 -0.33088,-0.46323 -0.11029,-0.15441 -0.22058,-0.41911 -0.33087,-0.74999 l -0.19853,-0.70587 c -0.0221,-0.17647 -0.0882,-0.52941 -0.19853,-1.03675 -0.0882,-0.44118 -0.13235,-0.81617 -0.11029,-1.12499 0.0221,-0.30882 0.0662,-0.6397 0.17647,-0.97057 0.0882,-0.33088 0.22058,-0.66176 0.41911,-0.99264 0.22059,-0.37499 0.44117,-0.70587 0.66176,-1.03675 0.19852,-0.30882 0.35293,-0.50734 0.44117,-0.61764 0.0662,-0.0662 0.15441,-0.13235 0.30882,-0.24264 l 0.66175,-0.41911 c 0.19853,-0.11029 0.48529,-0.19853 0.81617,-0.2647 0.33087,-0.0662 0.61764,-0.0662 0.86028,-0.0441 l -0.11029,0.30882 z m 1.56615,-0.375 c 0.13235,-0.13235 0.19853,-0.33087 0.22059,-0.57352 0.0662,-0.35293 -0.22059,-0.61764 -0.6397,-0.68381 l -0.19853,-0.0221 -0.61764,-0.0882 c -0.39705,-0.0662 -0.83822,-0.0662 -1.34557,0.0441 -0.50734,0.11029 -0.92645,0.24265 -1.27939,0.44117 -0.28676,0.15441 -0.5294,0.30882 -0.74999,0.46323 -0.2647,0.17647 -0.46323,0.35294 -0.59558,0.50735 -0.11029,0.13235 -0.30882,0.37499 -0.55146,0.74999 -0.24265,0.35293 -0.46323,0.72793 -0.70587,1.12498 -0.24265,0.44117 -0.44117,0.88234 -0.57353,1.32351 -0.11029,0.44117 -0.19852,0.88234 -0.22058,1.30146 -0.0221,0.41911 0.0221,0.90439 0.13235,1.47792 l 0.19853,0.94851 c 0.0221,0.19853 0.11029,0.52941 0.2647,0.97058 0.15441,0.46323 0.30882,0.81616 0.46323,1.05881 0.15441,0.24264 0.30882,0.44117 0.46323,0.63969 0.35293,0.41911 0.88234,0.83823 1.49998,1.10293 0.30882,0.13235 0.57352,0.19853 0.81616,0.22058 0.375,0.0221 0.70587,-0.11029 0.99263,-0.39705 0.19853,-0.19853 0.41912,-0.50735 0.6397,-0.94852 0.35294,-0.77204 0.57352,-1.36762 0.68382,-2.24996 l 0.0662,-0.35294 0.24264,0.68381 c 0.13236,0.375 0.24265,0.66176 0.35294,0.88234 0.11029,0.24265 0.2647,0.46323 0.41911,0.66176 0.13235,0.17647 0.24265,0.33088 0.35294,0.44117 0.15441,0.15441 0.33088,0.30882 0.55146,0.41911 0.2647,0.15441 0.55146,0.24265 0.83823,0.24265 0.2647,0 0.50734,-0.0441 0.72793,-0.15441 0.2647,-0.1103 0.48528,-0.30882 0.68381,-0.57353 0.15441,-0.19852 0.2647,-0.44117 0.375,-0.72793 0.11029,-0.24264 0.19852,-0.50734 0.2647,-0.74999 0.0662,-0.2647 0.0882,-0.46323 0.11029,-0.61764 l 0,-0.13235 c 0.0882,-0.94851 -1.45586,-1.01469 -1.45586,-0.0662 l 0,0.13235 -0.0662,0.30882 c -0.0441,0.19853 -0.11029,0.37499 -0.19852,0.57352 -0.0662,0.17647 -0.15441,0.33088 -0.22059,0.44117 l -0.0882,0.0882 c -0.0221,0.0221 -0.0662,0.0221 -0.13235,0.0221 -0.0221,0 -0.0662,-0.0221 -0.1103,-0.0441 -0.0882,-0.0441 -0.15441,-0.0882 -0.19852,-0.15441 -0.0662,-0.0882 -0.17647,-0.19853 -0.28676,-0.35294 -0.0882,-0.11029 -0.17647,-0.22059 -0.24265,-0.37499 -0.0882,-0.19853 -0.19852,-0.44118 -0.30882,-0.77205 -0.13235,-0.33088 -0.22058,-0.61764 -0.28676,-0.81617 -0.0662,-0.19852 -0.13235,-0.41911 -0.15441,-0.66175 l -0.15441,-0.92646 -0.0662,-0.33088 c -0.0441,-0.2647 -0.0882,-0.5294 -0.15441,-0.79411 -0.0662,-0.35293 -0.0882,-0.68381 -0.1103,-1.01469 -0.022,-0.0662 -0.022,-0.15441 -0.022,-0.24264 0,-0.0221 0,-0.0441 0.022,-0.11029 0.17647,-0.72793 0.26471,-1.43381 0.33088,-1.67645 0.0221,-0.15441 0.0441,-0.28676 0.0441,-0.44117 0,-0.0441 0,-0.11029 -0.0221,-0.22059 z" />
            <path
               id="path9303"
               style="font-style:normal;font-variant:normal;font-weight:600;font-stretch:normal;line-height:93.00000072%;font-family:RiseStarHand;-inkscape-font-specification:'RiseStarHand Semi-Bold';text-align:center;text-anchor:middle;fill:#797979;fill-opacity:1;stroke:#797979;stroke-width:1.29390752px;stroke-opacity:1"
               d="m 138.17729,168.57667 c 0.37499,-0.81617 0.61763,-1.56616 0.77204,-2.27203 0.17647,-0.79411 0.26471,-1.34557 0.24265,-1.65439 l 0.0221,-0.11029 c 0.0882,-0.17647 -0.35294,-0.74999 -0.88234,-0.74999 -0.26471,-0.0221 -0.41912,0.0662 -0.57353,0.30882 -0.22058,0.39705 -0.24264,0.97057 -0.24264,0.99263 l -0.57352,2.3382 c -0.0662,0.22059 -0.11029,0.44117 -0.15441,0.68382 -0.0221,0.0441 -0.0221,0.0882 -0.0441,0.11029 -0.15441,0.33088 -0.33087,0.59558 -0.50734,0.83822 -0.19853,0.26471 -0.41911,0.46323 -0.61764,0.57353 -0.13235,0.0882 -0.24265,0.13235 -0.33088,0.13235 -0.22058,-0.24265 -0.46323,-0.72793 -0.72793,-1.41175 -0.28676,-0.77205 -0.57352,-1.61027 -0.88234,-2.55879 -0.33088,-0.99263 -0.55146,-1.61027 -0.66176,-1.87497 l -0.15441,-0.35294 c -0.37499,-0.86028 -1.76468,-0.22058 -1.32351,0.61764 l 0.15441,0.35294 c 0.11029,0.19852 0.30882,0.77205 0.59558,1.6985 0.30882,0.97058 0.61764,1.85292 0.92646,2.64703 0.33088,0.86028 0.66176,1.49997 1.01469,1.87497 0.15441,0.15441 0.30882,0.28676 0.50735,0.35294 0.46323,0.19852 1.01469,0.13235 1.61027,-0.19853 -0.11029,0.70587 -0.19853,1.41174 -0.28676,2.13968 -0.13235,0.88234 -0.30882,1.58821 -0.55146,2.09555 -0.19853,0.44118 -0.46323,0.74999 -0.77205,0.94852 -0.33088,0.19853 -0.81617,0.2647 -1.49998,0.24264 -0.6397,-0.0221 -1.12499,-0.17646 -1.45586,-0.46322 l -0.68382,-0.57353 c -0.68381,-0.61763 -1.63233,0.48529 -0.94851,1.10293 l 0.68381,0.57352 c 0.57352,0.50735 1.34557,0.77205 2.3382,0.81617 0.94852,0.0441 1.72057,-0.1103 2.29409,-0.44117 0.59558,-0.33088 1.03675,-0.88234 1.36763,-1.61028 0.28676,-0.63969 0.50734,-1.47792 0.66175,-2.49261 0.13235,-0.94851 0.2647,-1.89703 0.375,-2.82349 l 0.0882,-0.66175 c 0.0662,-0.39706 0.13235,-0.79411 0.22059,-1.19116 z" />
            <path
               id="path9305"
               style="font-style:normal;font-variant:normal;font-weight:600;font-stretch:normal;line-height:93.00000072%;font-family:RiseStarHand;-inkscape-font-specification:'RiseStarHand Semi-Bold';text-align:center;text-anchor:middle;fill:#797979;fill-opacity:1;stroke:#797979;stroke-width:1.29390752px;stroke-opacity:1"
               d="m 91.961074,187.85581 c -0.926458,0.2647 -0.419112,1.72057 0.44117,1.38969 l 0.02206,0 c 0.176468,1.1691 0.352936,2.16173 0.529404,2.9779 l 0.463229,1.98526 0.08823,0.35294 c 0.176468,0.9044 1.676447,0.55146 1.411745,-0.37499 l -0.110293,-0.35294 -0.44117,-1.94115 c -0.176468,-0.81617 -0.352936,-1.85292 -0.551463,-3.11025 l 0.992633,-0.33088 c 1.301453,-0.44117 2.492613,-0.74999 3.617597,-0.94852 l 0.948517,-0.17646 0.04412,2.51467 0.06618,2.91172 0.02206,0.72793 c 0.02206,0.41911 0.374994,0.72793 0.749993,0.70588 0.41911,0 0.72793,-0.375 0.70587,-0.74999 l -0.0221,-0.74999 -0.0662,-2.86761 -0.0441,-2.64702 0.72793,-0.0441 c 0.92646,0.0441 0.86028,-1.5441 -0.0662,-1.4338 l -0.66175,0.022 c 0.0221,-0.66175 0.0662,-1.32351 0.15441,-1.9632 l 0.15441,-1.32351 c 0.13235,-0.92646 -1.367631,-1.12499 -1.433807,-0.17647 l -0.176468,1.32351 c -0.08823,0.74999 -0.132351,1.49998 -0.154409,2.27203 l -1.213219,0.22058 c -1.19116,0.19853 -2.470554,0.52941 -3.816123,0.99263 -0.286761,0.1103 -0.529405,0.17647 -0.727932,0.24265 -0.198526,-1.56616 -0.308819,-2.84555 -0.374994,-3.86024 -0.06618,-1.12499 -0.08823,-1.76468 -0.08823,-1.94115 l -0.02206,-0.2647 c 0,-0.375 -0.352936,-0.70588 -0.772048,-0.68382 -0.374995,0 -0.683814,0.33088 -0.683814,0.74999 l 0.02206,0.2647 c 0,0.17647 0.02206,0.83823 0.08823,1.96321 0.06618,1.12499 0.198526,2.53673 0.44117,4.2573 l -0.06618,0 -0.198526,0.0662 z" />
            <path
               id="path9307"
               style="font-style:normal;font-variant:normal;font-weight:600;font-stretch:normal;line-height:93.00000072%;font-family:RiseStarHand;-inkscape-font-specification:'RiseStarHand Semi-Bold';text-align:center;text-anchor:middle;fill:#797979;fill-opacity:1;stroke:#797979;stroke-width:1.29390752px;stroke-opacity:1"
               d="m 108.17064,184.83379 c 0.19852,0.0662 0.74999,0.28676 1.65439,0.70588 0.9044,0.41911 1.52203,0.92645 1.85291,1.47792 0.35294,0.59558 0.57352,1.1691 0.6397,1.6985 0.0662,0.50735 -0.0441,1.03675 -0.33088,1.63233 -0.2647,0.57352 -0.68381,1.0147 -1.25733,1.30146 -0.61764,0.28676 -1.10293,0.41911 -1.47793,0.37499 -0.37499,-0.0441 -0.88234,-0.30882 -1.47792,-0.79411 -0.63969,-0.50734 -1.08086,-1.03675 -1.36762,-1.63233 -0.28676,-0.59558 -0.46323,-1.21321 -0.48529,-1.85291 -0.0221,-0.6397 0.0662,-1.19116 0.28676,-1.61027 0.19853,-0.41912 0.55146,-0.77205 1.05881,-1.05881 0.19852,-0.11029 0.37499,-0.19853 0.57352,-0.2647 l 0.33088,0.0221 z m 3.17642,-0.11029 c 0.0662,-0.0882 0.1103,-0.17647 0.13236,-0.28676 0.0882,-0.37499 -0.17647,-0.77205 -0.55147,-0.86028 l -0.55146,-0.13235 -0.77205,-0.13235 -0.81616,-0.0662 c -0.77205,-0.0662 -1.52204,0.13235 -2.27203,0.57352 -0.74999,0.46323 -1.30145,1.01469 -1.63233,1.67645 -0.30882,0.6397 -0.44117,1.41174 -0.41911,2.29409 0.0441,0.86028 0.24264,1.67644 0.61764,2.44849 0.37499,0.77205 0.97057,1.47792 1.76468,2.11762 0.81616,0.66175 1.56615,1.03675 2.20585,1.12498 0.68381,0.0662 1.45586,-0.11029 2.31614,-0.5294 0.88234,-0.44117 1.52204,-1.10293 1.94115,-1.98527 0.39706,-0.86028 0.55147,-1.67645 0.44117,-2.44849 -0.11029,-0.72793 -0.37499,-1.47792 -0.83822,-2.24997 -0.33088,-0.57352 -0.86028,-1.08087 -1.56616,-1.5441 z" />
            <path
               id="path9309"
               style="font-style:normal;font-variant:normal;font-weight:600;font-stretch:normal;line-height:93.00000072%;font-family:RiseStarHand;-inkscape-font-specification:'RiseStarHand Semi-Bold';text-align:center;text-anchor:middle;fill:#797979;fill-opacity:1;stroke:#797979;stroke-width:1.29390752px;stroke-opacity:1"
               d="m 116.25371,193.08368 c 0.13235,0.9044 1.61027,0.6397 1.4338,-0.28676 l -0.13235,-0.59558 c -0.0662,-0.33088 -0.0882,-0.81617 -0.0882,-1.41175 0,-0.63969 0.0221,-1.30145 0.0882,-2.02938 0.0662,-0.68381 0.19853,-1.36763 0.39705,-2.0735 0.19853,-0.68381 0.44117,-1.21322 0.77205,-1.63233 0.28676,-0.375 0.59558,-0.6397 0.97058,-0.79411 0.30881,-0.11029 0.61763,-0.11029 0.92645,0.0441 0.375,0.15441 0.61764,0.37499 0.77205,0.61764 0.19853,0.33088 0.33088,0.68381 0.44117,1.10292 0.11029,0.46323 0.19853,0.97058 0.2647,1.5441 0.0662,0.61764 0.1103,1.1691 0.13235,1.63233 0.0221,0.97058 0.0882,1.74262 0.15441,2.60291 0.0221,0.39705 0.0441,0.66175 0.0441,0.77204 0,0.28676 1.45586,-0.0441 1.45586,-0.2647 0.0221,-0.28676 0.0662,-0.79411 0.17647,-1.52204 0.11029,-0.72793 0.24265,-1.36762 0.375,-1.89703 0.28676,-1.05881 0.70587,-2.02938 1.14704,-2.82349 0.19853,-0.37499 0.41911,-0.66175 0.66175,-0.9044 0.19853,-0.19852 0.39706,-0.35293 0.6397,-0.46323 0.13235,-0.0662 0.24265,-0.0662 0.30882,-0.0441 0.17647,0.0882 0.35294,0.24264 0.52941,0.48528 0.19852,0.28676 0.37499,0.59558 0.50734,0.94852 0.11029,0.35294 0.22059,0.83822 0.28676,1.45586 0.0662,0.6397 0.11029,1.19116 0.11029,1.63233 0,0.46323 0,0.86028 -0.0221,1.21322 l 0,1.65439 0.0662,0.70587 0.0662,0.55146 0.0441,0.39706 0,0.19852 c 0.13236,0.92646 1.52204,0.81617 1.45587,-0.13235 l -0.0221,-0.19852 -0.0441,-0.46323 -0.0662,-0.52941 -0.0441,-0.57352 0,-0.68381 0,-0.9044 c 0.0221,-0.35294 0.0221,-0.77205 0.0221,-1.23528 0,-0.48529 -0.0441,-1.08087 -0.1103,-1.78674 -0.0882,-0.72793 -0.22058,-1.34557 -0.37499,-1.8088 -0.17647,-0.46323 -0.41911,-0.9044 -0.70587,-1.30145 -0.33088,-0.41911 -0.68382,-0.72793 -1.05881,-0.92646 -0.48529,-0.24264 -0.99264,-0.24264 -1.52204,0 -0.41911,0.19853 -0.81616,0.46323 -1.14704,0.81617 -0.28676,0.33088 -0.57352,0.72793 -0.83823,1.19116 -0.2647,0.44117 -0.50734,0.92646 -0.72793,1.45586 l -0.0882,0.24264 c -0.0662,-0.50734 -0.15441,-0.97057 -0.2647,-1.38968 -0.13235,-0.55147 -0.33088,-1.05881 -0.59558,-1.49998 -0.30882,-0.50735 -0.79411,-0.92646 -1.43381,-1.21322 -0.68381,-0.28676 -1.36763,-0.30882 -2.05144,-0.0441 -0.61764,0.24265 -1.14704,0.66176 -1.61027,1.25734 -0.41911,0.57352 -0.74999,1.27939 -0.99263,2.11762 -0.24265,0.7941 -0.39706,1.58821 -0.46323,2.36026 -0.0662,0.74999 -0.0882,1.45586 -0.0882,2.13967 0,0.68382 0.0441,1.25734 0.13235,1.69851 l 0.1103,0.59558 z" />
            <path
               id="path9311"
               style="font-style:normal;font-variant:normal;font-weight:600;font-stretch:normal;line-height:93.00000072%;font-family:RiseStarHand;-inkscape-font-specification:'RiseStarHand Semi-Bold';text-align:center;text-anchor:middle;fill:#797979;fill-opacity:1;stroke:#797979;stroke-width:1.29390752px;stroke-opacity:1"
               d="m 134.01288,187.67934 c 0.0882,-0.37499 0.22059,-0.70587 0.41911,-1.01469 0.17647,-0.30882 0.41911,-0.59558 0.70587,-0.86028 0.24265,-0.24264 0.6397,-0.46323 1.19116,-0.66176 0.50735,-0.17646 0.9044,-0.24264 1.19116,-0.19852 0.26471,0.0441 0.50735,0.17646 0.72794,0.37499 0.24264,0.24265 0.41911,0.44117 0.48528,0.59558 0.0662,0.15441 0.1103,0.33088 0.13235,0.50735 0.0221,0.0882 0,0.17647 -0.0662,0.24264 -0.0882,0.15441 -0.22059,0.33088 -0.39705,0.48529 -0.15441,0.15441 -0.375,0.28676 -0.68382,0.39705 -0.33088,0.13235 -0.86028,0.24265 -1.56615,0.35294 -0.72793,0.11029 -1.30146,0.15441 -1.67645,0.17647 -0.22059,0.0221 -0.39705,0.0221 -0.5294,0.0221 l 0.0662,-0.41911 z m 0.0662,1.87498 c 0.13235,-0.0221 0.28676,-0.0221 0.46323,-0.0221 0.41911,-0.0221 1.03675,-0.0882 1.80879,-0.19853 0.81617,-0.11029 1.45587,-0.2647 1.89704,-0.44117 0.48528,-0.19853 0.86028,-0.41911 1.14704,-0.68381 0.2647,-0.24265 0.48529,-0.50735 0.66175,-0.79411 0.22059,-0.35294 0.30882,-0.74999 0.26471,-1.1691 -0.0441,-0.33088 -0.13235,-0.6397 -0.26471,-0.94852 -0.15441,-0.33087 -0.41911,-0.66175 -0.81616,-1.03675 -0.41911,-0.39705 -0.9044,-0.63969 -1.45586,-0.74999 -0.52941,-0.0882 -1.1691,0 -1.94115,0.26471 -0.72793,0.2647 -1.30145,0.59558 -1.69851,0.97057 -0.39705,0.35294 -0.72793,0.74999 -0.97057,1.1691 -0.52941,0.88234 -0.77205,1.96321 -0.68382,2.95584 0.0662,0.94852 0.375,1.96321 1.23528,3.13231 0.39705,0.55147 0.77205,1.01469 1.14704,1.36763 0.39706,0.39705 0.74999,0.68381 1.08087,0.83822 0.37499,0.19853 0.77205,0.30882 1.21322,0.28676 0.39705,0 0.77205,-0.0662 1.14704,-0.19852 0.70587,-0.24265 1.08087,-0.46323 1.67645,-1.08087 0.28676,-0.28676 0.50734,-0.55146 0.70587,-0.83822 0.15441,-0.26471 0.28676,-0.48529 0.39705,-0.6397 l 0.15441,-0.24264 c 0.48529,-0.77205 -0.83822,-1.56616 -1.25733,-0.72793 l -0.15441,0.24264 c -0.0662,0.13235 -0.19853,0.30882 -0.35294,0.55146 -0.13235,0.19853 -0.30882,0.41911 -0.5294,0.6397 -0.44117,0.44117 -0.6397,0.55146 -1.10293,0.72793 -0.22058,0.0662 -0.44117,0.11029 -0.68381,0.11029 -0.19853,0 -0.375,-0.0441 -0.52941,-0.11029 -0.19852,-0.11029 -0.44117,-0.28676 -0.72793,-0.57352 -0.30882,-0.30882 -0.63969,-0.70587 -1.01469,-1.21322 -0.33088,-0.46323 -0.57352,-0.9044 -0.70587,-1.27939 l -0.11029,-0.30882 z" />
          </g>
        </g>
      </g>
    </g>
  </g>
</svg>
